<svg width="60" height="60" viewBox="0 0 60 60" fill="none" xmlns="http://www.w3.org/2000/svg">
  <defs>
    <linearGradient id="gradient1" x1="0%" y1="0%" x2="100%" y2="100%">
      <stop offset="0%" style="stop-color:#f8b4d9;stop-opacity:1" />
      <stop offset="100%" style="stop-color:#e88bb7;stop-opacity:1" />
    </linearGradient>
  </defs>
  
  <!-- Corazón roto elegante -->
  <path d="M30 50 C20 45, 10 35, 10 25 C10 15, 15 10, 22 10 C26 10, 28 12, 30 15 C32 12, 34 10, 38 10 C45 15, 50 15, 50 25 C50 35, 40 45, 30 50 Z" 
        fill="url(#gradient1)" opacity="0.9"/>
  
  <!-- Línea de ruptura -->
  <line x1="30" y1="10" x2="30" y2="50" stroke="#1a1a1a" stroke-width="2" stroke-linecap="round"/>
  
  <!-- Detalles decorativos -->
  <circle cx="30" cy="25" r="3" fill="#ffffff" opacity="0.6"/>
  <circle cx="22" cy="20" r="2" fill="#ffffff" opacity="0.4"/>
  <circle cx="38" cy="20" r="2" fill="#ffffff" opacity="0.4"/>
  
  <!-- Borde elegante -->
  <circle cx="30" cy="30" r="28" stroke="url(#gradient1)" stroke-width="1.5" fill="none" opacity="0.3"/>
</svg>
